# xmcd CD database file
#
# Track frame offsets:
#	150
#	16040
#	34025
#	49310
#	64637
#	76570
#	95512
#	103772
#	113277
#	122052
#	137770
#	157292
#	175280
#	188932
#	200082
#	215137
#	231057
#	244072
#	255727
#	272962
#	283307
#	296525
#
# Disc length: 4127 seconds
#
# Revision: 0
# Processed by: cddbd v1.5.1PL0 Copyright (c) Steve Scherf et al.
# Submitted via: CDex 1.50beta10
#
DISCID=47101d16
DTITLE=Sylvia Kowalczuk - Harp Of Elegance
DYEAR=1900
DGENRE=New Age
TTITLE0=Moon River
TTITLE1=Fascinations
TTITLE2=Evergreen
TTITLE3=When You Wish Upon A Star
TTITLE4=It Might As Well Be Spring
TTITLE5=All The Things You Are
TTITLE6=Try To Remember
TTITLE7=Soon It'S Gonna Rain
TTITLE8=They Were You
TTITLE9=What Are You Doing
TTITLE10=Night And Day
TTITLE11=Autumn Leaves
TTITLE12=Memory
TTITLE13=All I Ask Of You
TTITLE14=The Music Of The Night
TTITLE15=But Not For Me
TTITLE16=Someone To Watch Over Me
TTITLE17=Lara'S Theme From Doctor Zhivago
TTITLE18=Forever In Love
TTITLE19=If I Fell
TTITLE20=Eleanor Rigby
TTITLE21=Yesterday
EXTD=
EXTT0=
EXTT1=
EXTT2=
EXTT3=
EXTT4=
EXTT5=
EXTT6=
EXTT7=
EXTT8=
EXTT9=
EXTT10=
EXTT11=
EXTT12=
EXTT13=
EXTT14=
EXTT15=
EXTT16=
EXTT17=
EXTT18=
EXTT19=
EXTT20=
EXTT21=
PLAYORDER=
